<?xml version="1.0" encoding="UTF-8"?>
<svg xmlns="http://www.w3.org/2000/svg" viewBox="0 0 860 340" width="860" height="340">
  <defs>
    <marker id="arrow" markerWidth="8" markerHeight="6" refX="7" refY="3" orient="auto">
      <polygon points="0 0, 8 3, 0 6" fill="#2d5a88"/>
    </marker>
  </defs>
  <rect x="20" y="15" width="310" height="310" rx="8" fill="#1a3a5c"/>
  <text x="175" y="45" text-anchor="middle" font-family="Arial, sans-serif" font-size="15" font-weight="bold" fill="#ffffff">核心层：狭义元认知</text>
  <rect x="45" y="65" width="260" height="55" rx="6" fill="#264e73" stroke="#5b9bd5" stroke-width="1"/>
  <text x="175" y="98" text-anchor="middle" font-family="Arial, sans-serif" font-size="14" fill="#ffffff">认知边界感知</text>
  <rect x="45" y="140" width="260" height="55" rx="6" fill="#264e73" stroke="#5b9bd5" stroke-width="1"/>
  <text x="175" y="173" text-anchor="middle" font-family="Arial, sans-serif" font-size="14" fill="#ffffff">认知监控</text>
  <rect x="45" y="215" width="260" height="55" rx="6" fill="#264e73" stroke="#5b9bd5" stroke-width="1"/>
  <text x="175" y="248" text-anchor="middle" font-family="Arial, sans-serif" font-size="14" fill="#ffffff">认知调节</text>
  <rect x="530" y="15" width="310" height="310" rx="8" fill="#f0f0f0" stroke="#2d5a88" stroke-width="1.5"/>
  <text x="685" y="45" text-anchor="middle" font-family="Arial, sans-serif" font-size="14" font-weight="bold" fill="#1a3a5c">应用层：元认知赋能的高阶能力</text>
  <rect x="560" y="65" width="250" height="45" rx="6" fill="#ffffff" stroke="#2d5a88" stroke-width="1"/>
  <text x="685" y="93" text-anchor="middle" font-family="Arial, sans-serif" font-size="14" fill="#333">精准提问</text>
  <rect x="560" y="130" width="250" height="45" rx="6" fill="#ffffff" stroke="#2d5a88" stroke-width="1"/>
  <text x="685" y="158" text-anchor="middle" font-family="Arial, sans-serif" font-size="14" fill="#333">注意力管理</text>
  <rect x="560" y="195" width="250" height="45" rx="6" fill="#ffffff" stroke="#2d5a88" stroke-width="1"/>
  <text x="685" y="223" text-anchor="middle" font-family="Arial, sans-serif" font-size="14" fill="#333">价值判断</text>
  <rect x="560" y="260" width="250" height="45" rx="6" fill="#ffffff" stroke="#2d5a88" stroke-width="1"/>
  <text x="685" y="288" text-anchor="middle" font-family="Arial, sans-serif" font-size="14" fill="#333">跨域连接的筛选</text>
  <line x1="310" y1="82" x2="555" y2="82" stroke="#2d5a88" stroke-width="1.2" marker-end="url(#arrow)"/>
  <line x1="310" y1="98" x2="555" y2="215" stroke="#2d5a88" stroke-width="1.2" marker-end="url(#arrow)"/>
  <line x1="310" y1="160" x2="555" y2="150" stroke="#2d5a88" stroke-width="1.2" marker-end="url(#arrow)"/>
  <line x1="310" y1="175" x2="555" y2="280" stroke="#2d5a88" stroke-width="1.2" marker-end="url(#arrow)"/>
  <line x1="310" y1="232" x2="555" y2="95" stroke="#2d5a88" stroke-width="1.2" marker-end="url(#arrow)"/>
  <line x1="310" y1="248" x2="555" y2="155" stroke="#2d5a88" stroke-width="1.2" marker-end="url(#arrow)"/>
</svg>