<?xml version="1.0" encoding="UTF-8"?>
<svg xmlns="http://www.w3.org/2000/svg" viewBox="0 0 800 300" width="800" height="300" font-family="Arial, sans-serif">
  <defs>
    <marker id="ah" markerWidth="10" markerHeight="7" refX="9" refY="3.5" orient="auto">
      <polygon points="0 0, 10 3.5, 0 7" fill="#5b9bd5"/>
    </marker>
  </defs>
  <line x1="400" y1="15" x2="400" y2="285" stroke="#dde5ed" stroke-width="1.2" stroke-dasharray="5,4"/>
  <text x="195" y="30" font-size="15" fill="#1a3a5c" text-anchor="middle" font-weight="bold">恐惧引擎 · 封闭循环</text>
  <rect x="55" y="65" width="120" height="44" rx="8" fill="#264e73"/>
  <text x="115" y="92" font-size="14" fill="#fff" text-anchor="middle">恐惧</text>
  <rect x="220" y="65" width="120" height="44" rx="8" fill="#264e73"/>
  <text x="280" y="92" font-size="14" fill="#fff" text-anchor="middle">行动</text>
  <rect x="220" y="200" width="120" height="44" rx="8" fill="#264e73"/>
  <text x="280" y="227" font-size="14" fill="#fff" text-anchor="middle">短暂缓解</text>
  <rect x="55" y="200" width="120" height="44" rx="8" fill="#264e73"/>
  <text x="115" y="227" font-size="14" fill="#fff" text-anchor="middle">新恐惧</text>
  <line x1="175" y1="87" x2="215" y2="87" stroke="#5b9bd5" stroke-width="2" marker-end="url(#ah)"/>
  <line x1="280" y1="109" x2="280" y2="195" stroke="#5b9bd5" stroke-width="2" marker-end="url(#ah)"/>
  <line x1="220" y1="222" x2="180" y2="222" stroke="#5b9bd5" stroke-width="2" marker-end="url(#ah)"/>
  <line x1="115" y1="200" x2="115" y2="114" stroke="#5b9bd5" stroke-width="2" marker-end="url(#ah)"/>
  <text x="197" y="160" font-size="12" fill="#8a9bb0" text-anchor="middle">♻ 循环不止</text>
  <text x="605" y="30" font-size="15" fill="#1a3a5c" text-anchor="middle" font-weight="bold">愿力引擎 · 开放系统</text>
  <rect x="460" y="65" width="120" height="44" rx="8" fill="#2d5a88"/>
  <text x="520" y="92" font-size="14" fill="#fff" text-anchor="middle">愿力</text>
  <rect x="630" y="65" width="120" height="44" rx="8" fill="#2d5a88"/>
  <text x="690" y="92" font-size="14" fill="#fff" text-anchor="middle">行动</text>
  <rect x="630" y="200" width="120" height="44" rx="8" fill="#2d5a88"/>
  <text x="690" y="227" font-size="14" fill="#fff" text-anchor="middle">成长</text>
  <rect x="455" y="200" width="140" height="44" rx="8" fill="#1a3a5c"/>
  <text x="525" y="227" font-size="14" fill="#fff" text-anchor="middle">更深的愿力</text>
  <line x1="580" y1="87" x2="625" y2="87" stroke="#5b9bd5" stroke-width="2" marker-end="url(#ah)"/>
  <line x1="690" y1="109" x2="690" y2="195" stroke="#5b9bd5" stroke-width="2" marker-end="url(#ah)"/>
  <line x1="630" y1="222" x2="600" y2="222" stroke="#5b9bd5" stroke-width="2" marker-end="url(#ah)"/>
  <line x1="520" y1="200" x2="520" y2="114" stroke="#5b9bd5" stroke-width="2" marker-end="url(#ah)"/>
  <text x="607" y="155" font-size="12" fill="#5b9bd5" text-anchor="middle" font-weight="bold">↗ 持续拓展</text>
  <line x1="455" y1="248" x2="425" y2="278" stroke="#5b9bd5" stroke-width="1.5" stroke-dasharray="4,3" marker-end="url(#ah)"/>
</svg>