<?xml version="1.0" encoding="UTF-8"?>
<svg xmlns="http://www.w3.org/2000/svg" viewBox="0 0 800 310" width="800" height="310" font-family="Arial, sans-serif">
  <defs>
    <marker id="ah" markerWidth="10" markerHeight="7" refX="9" refY="3.5" orient="auto">
      <polygon points="0 0, 10 3.5, 0 7" fill="#5b9bd5"/>
    </marker>
  </defs>
  <text x="400" y="22" font-size="15" fill="#1a3a5c" text-anchor="middle" font-weight="bold">业力惯性的三层循环</text>
  <rect x="0" y="40" width="800" height="75" rx="0" fill="#f5f0f0"/>
  <rect x="0" y="135" width="800" height="75" rx="0" fill="#f0f2f5"/>
  <rect x="0" y="230" width="800" height="75" rx="0" fill="#eef2f5"/>
  <rect x="20" y="55" width="72" height="30" rx="15" fill="#1a3a5c"/>
  <text x="56" y="75" font-size="12" fill="#fff" text-anchor="middle" font-weight="bold">社会层</text>
  <rect x="20" y="150" width="72" height="30" rx="15" fill="#264e73"/>
  <text x="56" y="170" font-size="12" fill="#fff" text-anchor="middle" font-weight="bold">心理层</text>
  <rect x="20" y="245" width="72" height="30" rx="15" fill="#2d5a88"/>
  <text x="56" y="265" font-size="12" fill="#fff" text-anchor="middle" font-weight="bold">神经层</text>
  <rect x="120" y="52" width="175" height="38" rx="8" fill="#2d5a88"/>
  <text x="207" y="76" font-size="13" fill="#fff" text-anchor="middle">集体重复模式</text>
  <rect x="340" y="52" width="155" height="38" rx="8" fill="#2d5a88"/>
  <text x="417" y="76" font-size="13" fill="#fff" text-anchor="middle">内卷锁死</text>
  <rect x="540" y="52" width="185" height="38" rx="8" fill="#264e73"/>
  <text x="632" y="76" font-size="13" fill="#fff" text-anchor="middle">偏离代价被放大</text>
  <line x1="295" y1="71" x2="335" y2="71" stroke="#5b9bd5" stroke-width="2" marker-end="url(#ah)"/>
  <line x1="495" y1="71" x2="535" y2="71" stroke="#5b9bd5" stroke-width="2" marker-end="url(#ah)"/>
  <rect x="120" y="147" width="175" height="38" rx="8" fill="#2d5a88"/>
  <text x="207" y="171" font-size="13" fill="#fff" text-anchor="middle">身份叙事固化</text>
  <rect x="340" y="147" width="175" height="38" rx="8" fill="#2d5a88"/>
  <text x="427" y="171" font-size="13" fill="#fff" text-anchor="middle">认知失调抵抗</text>
  <rect x="560" y="147" width="170" height="38" rx="8" fill="#264e73"/>
  <text x="645" y="171" font-size="13" fill="#fff" text-anchor="middle">改变威胁自我</text>
  <line x1="295" y1="166" x2="335" y2="166" stroke="#5b9bd5" stroke-width="2" marker-end="url(#ah)"/>
  <line x1="515" y1="166" x2="555" y2="166" stroke="#5b9bd5" stroke-width="2" marker-end="url(#ah)"/>
  <rect x="120" y="242" width="175" height="38" rx="8" fill="#2d5a88"/>
  <text x="207" y="266" font-size="13" fill="#fff" text-anchor="middle">Hebb定律加固</text>
  <rect x="340" y="242" width="155" height="38" rx="8" fill="#2d5a88"/>
  <text x="417" y="266" font-size="13" fill="#fff" text-anchor="middle">路径自动化</text>
  <rect x="540" y="242" width="185" height="38" rx="8" fill="#264e73"/>
  <text x="632" y="266" font-size="13" fill="#fff" text-anchor="middle">无意识运行</text>
  <line x1="295" y1="261" x2="335" y2="261" stroke="#5b9bd5" stroke-width="2" marker-end="url(#ah)"/>
  <line x1="495" y1="261" x2="535" y2="261" stroke="#5b9bd5" stroke-width="2" marker-end="url(#ah)"/>
  <line x1="760" y1="90" x2="760" y2="130" stroke="#c75050" stroke-width="1.5" stroke-dasharray="4,3" marker-end="url(#ah)"/>
  <line x1="760" y1="185" x2="760" y2="225" stroke="#c75050" stroke-width="1.5" stroke-dasharray="4,3" marker-end="url(#ah)"/>
  <text x="780" y="170" font-size="11" fill="#c75050" writing-mode="tb" font-weight="bold">互相强化</text>
</svg>