<?xml version="1.0" encoding="UTF-8"?>
<svg xmlns="http://www.w3.org/2000/svg" viewBox="0 0 550 300" font-family="Arial, sans-serif">
<defs><marker id="a" markerWidth="10" markerHeight="7" refX="10" refY="3.5" orient="auto"><polygon points="0 0,10 3.5,0 7" fill="#5b9bd5"/></marker></defs>
<rect x="175" y="8" width="200" height="52" rx="8" fill="#1a3a5c"/>
<text x="275" y="29" text-anchor="middle" fill="#fff" font-size="13" font-weight="bold">Plan</text>
<text x="275" y="47" text-anchor="middle" fill="#f0f0f0" font-size="10">Design cognitive path</text>
<rect x="365" y="122" width="180" height="56" rx="8" fill="#264e73"/>
<text x="455" y="145" text-anchor="middle" fill="#fff" font-size="13" font-weight="bold">Monitor</text>
<text x="455" y="163" text-anchor="middle" fill="#f0f0f0" font-size="10">Real-time awareness</text>
<rect x="175" y="240" width="200" height="52" rx="8" fill="#1a3a5c"/>
<text x="275" y="261" text-anchor="middle" fill="#fff" font-size="13" font-weight="bold">Evaluate</text>
<text x="275" y="279" text-anchor="middle" fill="#f0f0f0" font-size="10">Review calibration</text>
<rect x="5" y="122" width="180" height="56" rx="8" fill="#264e73"/>
<text x="95" y="145" text-anchor="middle" fill="#fff" font-size="13" font-weight="bold">Adapt</text>
<text x="95" y="163" text-anchor="middle" fill="#f0f0f0" font-size="10">Adjust strategies</text>
<path d="M 355 60 Q 400 85,378 120" fill="none" stroke="#5b9bd5" stroke-width="2" marker-end="url(#a)"/>
<path d="M 440 178 Q 415 218,360 238" fill="none" stroke="#5b9bd5" stroke-width="2" marker-end="url(#a)"/>
<path d="M 195 240 Q 148 218,172 180" fill="none" stroke="#5b9bd5" stroke-width="2" marker-end="url(#a)"/>
<path d="M 133 122 Q 153 80,195 60" fill="none" stroke="#5b9bd5" stroke-width="2" marker-end="url(#a)"/>
</svg>