<?xml version="1.0" encoding="UTF-8"?>
<svg xmlns="http://www.w3.org/2000/svg" viewBox="0 0 650 220" font-family="Arial, sans-serif">
<defs><marker id="a" markerWidth="10" markerHeight="7" refX="10" refY="3.5" orient="auto"><polygon points="0 0,10 3.5,0 7" fill="#5b9bd5"/></marker></defs>
<rect x="15" y="72" width="165" height="76" rx="8" fill="#2d5a88"/>
<text x="97" y="107" text-anchor="middle" fill="#fff" font-size="15" font-weight="bold">扩展 ≠ 替代</text>
<rect x="240" y="15" width="175" height="55" rx="8" fill="#1a3a5c"/>
<text x="327" y="37" text-anchor="middle" fill="#fff" font-size="13" font-weight="bold">执行层</text>
<text x="327" y="56" text-anchor="middle" fill="#f0f0f0" font-size="11">可扩展</text>
<rect x="475" y="18" width="155" height="50" rx="8" fill="#5b9bd5"/>
<text x="552" y="48" text-anchor="middle" fill="#fff" font-size="13" font-weight="bold">AI辅助</text>
<rect x="240" y="150" width="175" height="55" rx="8" fill="#1a3a5c"/>
<text x="327" y="172" text-anchor="middle" fill="#fff" font-size="13" font-weight="bold">判断层</text>
<text x="327" y="191" text-anchor="middle" fill="#f0f0f0" font-size="11">需保留</text>
<rect x="475" y="152" width="155" height="50" rx="8" fill="#264e73"/>
<text x="552" y="182" text-anchor="middle" fill="#fff" font-size="13" font-weight="bold">元认知核心</text>
<path d="M 180 92 L 238 45" fill="none" stroke="#5b9bd5" stroke-width="2" marker-end="url(#a)"/>
<path d="M 180 128 L 238 175" fill="none" stroke="#5b9bd5" stroke-width="2" marker-end="url(#a)"/>
<line x1="415" y1="42" x2="473" y2="42" stroke="#5b9bd5" stroke-width="2" marker-end="url(#a)"/>
<line x1="415" y1="177" x2="473" y2="177" stroke="#5b9bd5" stroke-width="2" marker-end="url(#a)"/>
</svg>