<?xml version="1.0" encoding="UTF-8"?>
<svg xmlns="http://www.w3.org/2000/svg" viewBox="0 0 750 320" font-family="Arial, sans-serif">
<defs><marker id="a" markerWidth="10" markerHeight="7" refX="10" refY="3.5" orient="auto"><polygon points="0 0,10 3.5,0 7" fill="#5b9bd5"/></marker></defs>
<rect x="55" y="20" width="150" height="44" rx="8" fill="#1a3a5c"/>
<text x="130" y="47" text-anchor="middle" fill="#fff" font-size="13" font-weight="bold">觉察未知</text>
<rect x="250" y="20" width="150" height="44" rx="8" fill="#264e73"/>
<text x="325" y="47" text-anchor="middle" fill="#fff" font-size="13" font-weight="bold">精准提问</text>
<rect x="445" y="20" width="150" height="44" rx="8" fill="#1a3a5c"/>
<text x="520" y="47" text-anchor="middle" fill="#fff" font-size="13" font-weight="bold">注意力调节</text>
<rect x="55" y="90" width="150" height="44" rx="8" fill="#264e73"/>
<text x="130" y="117" text-anchor="middle" fill="#fff" font-size="13" font-weight="bold">学会学习</text>
<rect x="250" y="90" width="150" height="44" rx="8" fill="#1a3a5c"/>
<text x="325" y="117" text-anchor="middle" fill="#fff" font-size="13" font-weight="bold">价值判断</text>
<rect x="445" y="90" width="150" height="44" rx="8" fill="#264e73"/>
<text x="520" y="117" text-anchor="middle" fill="#fff" font-size="13" font-weight="bold">跨域连接</text>
<rect x="195" y="200" width="230" height="55" rx="8" fill="#2d5a88"/>
<text x="310" y="233" text-anchor="middle" fill="#fff" font-size="15" font-weight="bold">元认知操作系统</text>
<rect x="530" y="203" width="155" height="50" rx="8" fill="#5b9bd5"/>
<text x="607" y="233" text-anchor="middle" fill="#fff" font-size="14" font-weight="bold">认知未来</text>
<line x1="130" y1="64" x2="248" y2="200" stroke="#5b9bd5" stroke-width="1.5" marker-end="url(#a)"/>
<line x1="325" y1="64" x2="310" y2="198" stroke="#5b9bd5" stroke-width="1.5" marker-end="url(#a)"/>
<line x1="520" y1="64" x2="372" y2="200" stroke="#5b9bd5" stroke-width="1.5" marker-end="url(#a)"/>
<line x1="130" y1="134" x2="243" y2="200" stroke="#5b9bd5" stroke-width="1.5" marker-end="url(#a)"/>
<line x1="325" y1="134" x2="310" y2="198" stroke="#5b9bd5" stroke-width="1.5" marker-end="url(#a)"/>
<line x1="520" y1="134" x2="378" y2="200" stroke="#5b9bd5" stroke-width="1.5" marker-end="url(#a)"/>
<line x1="425" y1="227" x2="528" y2="227" stroke="#5b9bd5" stroke-width="2" marker-end="url(#a)"/>
</svg>