<?xml version="1.0" encoding="UTF-8"?>
<svg xmlns="http://www.w3.org/2000/svg" viewBox="0 0 860 340" width="860" height="340">
  <defs>
    <marker id="arrow" markerWidth="10" markerHeight="7" refX="10" refY="3.5" orient="auto">
      <polygon points="0 0, 10 3.5, 0 7" fill="#1a3a5c"/>
    </marker>
  </defs>
  <rect width="860" height="340" fill="#f0f0f0" rx="6"/>
  <text x="430" y="25" text-anchor="middle" font-family="Arial, sans-serif" font-size="15" font-weight="bold" fill="#1a3a5c">Translator vs Direct Speaker</text>
  <rect x="20" y="38" width="390" height="292" rx="6" fill="none" stroke="#e05555" stroke-width="1.5" stroke-dasharray="6,4"/>
  <text x="215" y="60" text-anchor="middle" font-family="Arial, sans-serif" font-size="14" font-weight="bold" fill="#e05555">Translator</text>
  <rect x="135" y="72" width="160" height="44" rx="6" fill="#5b9bd5"/>
  <text x="215" y="99" text-anchor="middle" font-family="Arial, sans-serif" font-size="14" fill="#ffffff">Meaning</text>
  <line x1="215" y1="116" x2="215" y2="138" stroke="#1a3a5c" stroke-width="2" marker-end="url(#arrow)"/>
  <rect x="135" y="143" width="160" height="44" rx="6" fill="#e8a838"/>
  <text x="215" y="170" text-anchor="middle" font-family="Arial, sans-serif" font-size="14" fill="#ffffff">Chinese</text>
  <line x1="215" y1="187" x2="215" y2="209" stroke="#1a3a5c" stroke-width="2" marker-end="url(#arrow)"/>
  <rect x="135" y="214" width="160" height="44" rx="6" fill="#e05555"/>
  <text x="215" y="241" text-anchor="middle" font-family="Arial, sans-serif" font-size="14" fill="#ffffff">Translation</text>
  <line x1="215" y1="258" x2="215" y2="278" stroke="#1a3a5c" stroke-width="2" marker-end="url(#arrow)"/>
  <rect x="135" y="283" width="160" height="44" rx="6" fill="#50b87a"/>
  <text x="215" y="310" text-anchor="middle" font-family="Arial, sans-serif" font-size="14" fill="#ffffff">English</text>
  <rect x="450" y="38" width="390" height="292" rx="6" fill="none" stroke="#50b87a" stroke-width="1.5" stroke-dasharray="6,4"/>
  <text x="645" y="60" text-anchor="middle" font-family="Arial, sans-serif" font-size="14" font-weight="bold" fill="#50b87a">Direct Speaker</text>
  <rect x="565" y="120" width="160" height="44" rx="6" fill="#5b9bd5"/>
  <text x="645" y="147" text-anchor="middle" font-family="Arial, sans-serif" font-size="14" fill="#ffffff">Meaning</text>
  <line x1="645" y1="164" x2="645" y2="234" stroke="#1a3a5c" stroke-width="2.5" marker-end="url(#arrow)"/>
  <rect x="565" y="239" width="160" height="44" rx="6" fill="#50b87a"/>
  <text x="645" y="266" text-anchor="middle" font-family="Arial, sans-serif" font-size="14" fill="#ffffff">English</text>
</svg>
