<?xml version="1.0" encoding="UTF-8"?>
<svg xmlns="http://www.w3.org/2000/svg" viewBox="0 0 860 380" width="860" height="380">
  <defs>
    <marker id="arrow" markerWidth="10" markerHeight="7" refX="10" refY="3.5" orient="auto">
      <polygon points="0 0, 10 3.5, 0 7" fill="#1a3a5c"/>
    </marker>
    <marker id="arrow-weak" markerWidth="10" markerHeight="7" refX="10" refY="3.5" orient="auto">
      <polygon points="0 0, 10 3.5, 0 7" fill="#999999"/>
    </marker>
  </defs>
  <rect width="860" height="380" fill="#f0f0f0" rx="6"/>
  <text x="430" y="25" text-anchor="middle" font-family="Arial, sans-serif" font-size="15" font-weight="bold" fill="#1a3a5c">Pathway Evolution: From Translation to Direct Connection</text>
  <rect x="10" y="42" width="260" height="325" rx="6" fill="none" stroke="#2d5a88" stroke-width="1.5" stroke-dasharray="6,4"/>
  <text x="140" y="65" text-anchor="middle" font-family="Arial, sans-serif" font-size="14" font-weight="bold" fill="#1a3a5c">Beginner Stage</text>
  <rect x="70" y="85" width="140" height="44" rx="6" fill="#5b9bd5"/>
  <text x="140" y="112" text-anchor="middle" font-family="Arial, sans-serif" font-size="14" fill="#ffffff">Meaning</text>
  <line x1="140" y1="129" x2="140" y2="172" stroke="#1a3a5c" stroke-width="2.5" marker-end="url(#arrow)"/>
  <text x="168" y="157" font-family="Arial, sans-serif" font-size="10" fill="#2d5a88">mandatory</text>
  <rect x="70" y="180" width="140" height="44" rx="6" fill="#e8a838"/>
  <text x="140" y="207" text-anchor="middle" font-family="Arial, sans-serif" font-size="14" fill="#ffffff">Chinese</text>
  <line x1="140" y1="224" x2="140" y2="267" stroke="#1a3a5c" stroke-width="2.5" marker-end="url(#arrow)"/>
  <text x="168" y="252" font-family="Arial, sans-serif" font-size="10" fill="#2d5a88">translate</text>
  <rect x="70" y="275" width="140" height="44" rx="6" fill="#50b87a"/>
  <text x="140" y="302" text-anchor="middle" font-family="Arial, sans-serif" font-size="14" fill="#ffffff">English</text>
  <rect x="295" y="42" width="270" height="325" rx="6" fill="none" stroke="#e8a838" stroke-width="1.5" stroke-dasharray="6,4"/>
  <text x="430" y="65" text-anchor="middle" font-family="Arial, sans-serif" font-size="14" font-weight="bold" fill="#1a3a5c">Transition Stage</text>
  <rect x="360" y="85" width="140" height="44" rx="6" fill="#5b9bd5"/>
  <text x="430" y="112" text-anchor="middle" font-family="Arial, sans-serif" font-size="14" fill="#ffffff">Meaning</text>
  <line x1="408" y1="129" x2="375" y2="172" stroke="#1a3a5c" stroke-width="2.5" marker-end="url(#arrow)"/>
  <text x="360" y="150" font-family="Arial, sans-serif" font-size="10" fill="#e05555">old path (strong)</text>
  <rect x="305" y="180" width="120" height="44" rx="6" fill="#e8a838"/>
  <text x="365" y="207" text-anchor="middle" font-family="Arial, sans-serif" font-size="14" fill="#ffffff">Chinese</text>
  <line x1="380" y1="224" x2="418" y2="267" stroke="#1a3a5c" stroke-width="2" marker-end="url(#arrow)"/>
  <line x1="458" y1="129" x2="458" y2="267" stroke="#999999" stroke-width="1.5" stroke-dasharray="5,4" marker-end="url(#arrow-weak)"/>
  <text x="478" y="200" font-family="Arial, sans-serif" font-size="10" fill="#999999">new path (weak)</text>
  <rect x="360" y="275" width="140" height="44" rx="6" fill="#50b87a"/>
  <text x="430" y="302" text-anchor="middle" font-family="Arial, sans-serif" font-size="14" fill="#ffffff">English</text>
  <rect x="590" y="42" width="260" height="325" rx="6" fill="none" stroke="#50b87a" stroke-width="1.5" stroke-dasharray="6,4"/>
  <text x="720" y="65" text-anchor="middle" font-family="Arial, sans-serif" font-size="14" font-weight="bold" fill="#1a3a5c">Proficient Stage</text>
  <rect x="650" y="85" width="140" height="44" rx="6" fill="#5b9bd5"/>
  <text x="720" y="112" text-anchor="middle" font-family="Arial, sans-serif" font-size="14" fill="#ffffff">Meaning</text>
  <line x1="720" y1="129" x2="720" y2="172" stroke="#1a3a5c" stroke-width="3" marker-end="url(#arrow)"/>
  <text x="748" y="157" font-family="Arial, sans-serif" font-size="10" fill="#50b87a">main path (strong)</text>
  <rect x="650" y="180" width="140" height="44" rx="6" fill="#50b87a"/>
  <text x="720" y="207" text-anchor="middle" font-family="Arial, sans-serif" font-size="14" fill="#ffffff">English</text>
  <line x1="695" y1="129" x2="670" y2="267" stroke="#999999" stroke-width="1.2" stroke-dasharray="5,4" marker-end="url(#arrow-weak)"/>
  <text x="650" y="220" font-family="Arial, sans-serif" font-size="10" fill="#999999">backup (weak)</text>
  <rect x="630" y="275" width="120" height="44" rx="6" fill="#e8a838" opacity="0.5"/>
  <text x="690" y="302" text-anchor="middle" font-family="Arial, sans-serif" font-size="14" fill="#ffffff" opacity="0.6">Chinese</text>
</svg>
