<?xml version="1.0" encoding="UTF-8"?>
<svg xmlns="http://www.w3.org/2000/svg" viewBox="0 0 860 520" width="860" height="520">
  <defs>
    <marker id="arrow-dash" markerWidth="8" markerHeight="6" refX="8" refY="3" orient="auto">
      <path d="M0,0 L8,3 L0,6" fill="#888"/>
    </marker>
    <filter id="shadow" x="-4%" y="-4%" width="108%" height="108%">
      <feDropShadow dx="1" dy="2" stdDeviation="2" flood-opacity="0.10"/>
    </filter>
  </defs>

  <!-- Background -->
  <rect width="860" height="520" rx="10" fill="#f8f9fb"/>

  <!-- Title -->
  <text x="430" y="36" text-anchor="middle" font-family="Arial, sans-serif" font-size="17" font-weight="bold" fill="#1a3a5c">Cultural Schema Layer &amp; Semantic Network Layer: Dual-Layer Structure</text>

  <!-- ====== Upper Layer: Cultural Schema ====== -->
  <rect x="30" y="56" width="800" height="190" rx="10" fill="#e8f5e9" stroke="#388e3c" stroke-width="1.2" opacity="0.35"/>
  <text x="60" y="80" font-family="Arial, sans-serif" font-size="13" font-weight="bold" fill="#2e7d32">Upper Layer · Skeleton — Cultural Schemas</text>

  <!-- Schema nodes -->
  <rect x="60"  y="100" width="120" height="44" rx="6" fill="#2e7d32" filter="url(#shadow)"/>
  <text x="120" y="127" text-anchor="middle" font-family="Arial, sans-serif" font-size="13" fill="#fff">Individualism</text>

  <rect x="220" y="100" width="120" height="44" rx="6" fill="#2e7d32" filter="url(#shadow)"/>
  <text x="280" y="127" text-anchor="middle" font-family="Arial, sans-serif" font-size="13" fill="#fff">Contractualism</text>

  <rect x="380" y="100" width="120" height="44" rx="6" fill="#2e7d32" filter="url(#shadow)"/>
  <text x="440" y="127" text-anchor="middle" font-family="Arial, sans-serif" font-size="13" fill="#fff">Empiricism</text>

  <rect x="540" y="100" width="120" height="44" rx="6" fill="#2e7d32" filter="url(#shadow)"/>
  <text x="600" y="127" text-anchor="middle" font-family="Arial, sans-serif" font-size="13" fill="#fff">Fair Play</text>

  <rect x="700" y="100" width="120" height="44" rx="6" fill="#2e7d32" filter="url(#shadow)"/>
  <text x="760" y="127" text-anchor="middle" font-family="Arial, sans-serif" font-size="13" fill="#fff">Rule of Law</text>

  <!-- Inter-schema connections -->
  <line x1="180" y1="122" x2="220" y2="122" stroke="#388e3c" stroke-width="1.5"/>
  <line x1="340" y1="122" x2="380" y2="122" stroke="#388e3c" stroke-width="1.5"/>
  <line x1="500" y1="122" x2="540" y2="122" stroke="#388e3c" stroke-width="1.5"/>
  <line x1="660" y1="122" x2="700" y2="122" stroke="#388e3c" stroke-width="1.5"/>
  <line x1="180" y1="135" x2="380" y2="110" stroke="#388e3c" stroke-width="0.8" opacity="0.5"/>
  <line x1="340" y1="135" x2="540" y2="110" stroke="#388e3c" stroke-width="0.8" opacity="0.5"/>
  <line x1="500" y1="135" x2="700" y2="110" stroke="#388e3c" stroke-width="0.8" opacity="0.5"/>

  <text x="430" y="180" text-anchor="middle" font-family="Arial, sans-serif" font-size="12" fill="#2e7d32" opacity="0.7">Deep Cognitive Frameworks · Underlying Logic of Language</text>

  <!-- ====== Separator ====== -->
  <line x1="60" y1="260" x2="800" y2="260" stroke="#bbb" stroke-width="1" stroke-dasharray="6,4"/>
  <text x="430" y="276" text-anchor="middle" font-family="Arial, sans-serif" font-size="12" fill="#888">Dashed arrows = Lexical mapping to cultural schemas</text>

  <!-- ====== Lower Layer: Lexical Nodes ====== -->
  <rect x="30" y="290" width="800" height="190" rx="10" fill="#fff3e0" stroke="#8d6e63" stroke-width="1.2" opacity="0.35"/>
  <text x="60" y="314" font-family="Arial, sans-serif" font-size="13" font-weight="bold" fill="#5d4037">Lower Layer · Muscle — Lexical / Semantic Network</text>

  <!-- Lexical nodes -->
  <rect x="60"  y="334" width="120" height="44" rx="6" fill="#6d4c41" filter="url(#shadow)"/>
  <text x="120" y="361" text-anchor="middle" font-family="Arial, sans-serif" font-size="14" fill="#fff">fair</text>

  <rect x="220" y="334" width="140" height="44" rx="6" fill="#6d4c41" filter="url(#shadow)"/>
  <text x="290" y="361" text-anchor="middle" font-family="Arial, sans-serif" font-size="14" fill="#fff">accountability</text>

  <rect x="400" y="334" width="120" height="44" rx="6" fill="#6d4c41" filter="url(#shadow)"/>
  <text x="460" y="361" text-anchor="middle" font-family="Arial, sans-serif" font-size="14" fill="#fff">privacy</text>

  <rect x="560" y="334" width="120" height="44" rx="6" fill="#6d4c41" filter="url(#shadow)"/>
  <text x="620" y="361" text-anchor="middle" font-family="Arial, sans-serif" font-size="14" fill="#fff">I think</text>

  <rect x="720" y="334" width="120" height="44" rx="6" fill="#6d4c41" filter="url(#shadow)"/>
  <text x="780" y="361" text-anchor="middle" font-family="Arial, sans-serif" font-size="14" fill="#fff">it turns out</text>

  <text x="430" y="414" text-anchor="middle" font-family="Arial, sans-serif" font-size="12" fill="#5d4037" opacity="0.7">Surface Vocabulary · Concrete Expressions Carrying Cultural Meaning</text>

  <!-- ====== Dashed arrows: lexical → schema ====== -->
  <line x1="120" y1="334" x2="600" y2="144" stroke="#888" stroke-width="1.5" stroke-dasharray="6,3" marker-end="url(#arrow-dash)"/>
  <line x1="290" y1="334" x2="280" y2="144" stroke="#888" stroke-width="1.5" stroke-dasharray="6,3" marker-end="url(#arrow-dash)"/>
  <line x1="460" y1="334" x2="120" y2="144" stroke="#888" stroke-width="1.5" stroke-dasharray="6,3" marker-end="url(#arrow-dash)"/>
  <line x1="620" y1="334" x2="440" y2="144" stroke="#888" stroke-width="1.5" stroke-dasharray="6,3" marker-end="url(#arrow-dash)"/>
  <line x1="780" y1="334" x2="460" y2="144" stroke="#888" stroke-width="1.5" stroke-dasharray="6,3" marker-end="url(#arrow-dash)"/>

  <!-- Legend -->
  <rect x="60" y="470" width="16" height="16" rx="3" fill="#2e7d32"/>
  <text x="82" y="483" font-family="Arial, sans-serif" font-size="12" fill="#333">Schema Node</text>
  <rect x="180" y="470" width="16" height="16" rx="3" fill="#6d4c41"/>
  <text x="202" y="483" font-family="Arial, sans-serif" font-size="12" fill="#333">Lexical Node</text>
  <line x1="300" y1="478" x2="340" y2="478" stroke="#888" stroke-width="1.5" stroke-dasharray="6,3" marker-end="url(#arrow-dash)"/>
  <text x="348" y="483" font-family="Arial, sans-serif" font-size="12" fill="#333">Lexical → Schema Mapping</text>
  <line x1="520" y1="478" x2="560" y2="478" stroke="#388e3c" stroke-width="1.5"/>
  <text x="568" y="483" font-family="Arial, sans-serif" font-size="12" fill="#333">Inter-Schema Link</text>
</svg>